<svg xmlns="http://www.w3.org/2000/svg" width="40" height="40" fill="none"><path fill="#2DA833" d="M0 9.279V.857C0 0 0 0 .873 0l15.065.024c.68 0 1.36-.027 2.039-.015.51.008.59.108.591.629V17.92c0 .583-.101.688-.67.688H.793c-.738 0-.791-.053-.791-.777L0 9.279Zm30.754 9.33h-8.335c-.869 0-.95-.074-.939-.934.079-5.398.022-10.795.043-16.191 0-.331-.073-.655-.016-.994.05-.294.173-.401.455-.38a16.44 16.44 0 0 1 2.6.442c6.347 1.546 10.868 5.339 13.692 11.19.923 1.91 1.416 3.954 1.687 6.053.087.701-.01.81-.723.812h-8.465v.002ZM9.309 21.545h8.596c.623 0 .66.036.66.664V39.4c0 .572-.056.644-.626.581-2.817-.31-5.468-1.15-7.915-2.58-4.68-2.744-7.734-6.755-9.262-11.947C.43 24.33.24 23.181.093 22.021c-.054-.418.136-.485.49-.484 2.909.008 5.817.008 8.726.008ZM21.522 39.18V22.904c0-.33-.087-.656-.012-.994.052-.238.161-.357.403-.357.243-.001.492-.012.738-.012l16.495-.004h.13c.658.01.744.087.666.73-.429 3.553-1.666 6.788-3.809 9.666-3.381 4.541-7.892 7.16-13.477 7.972-.1.014-.197.047-.297.06-.769.107-.888-.003-.837-.785Z"/></svg>