<svg width="40" height="40" viewBox="0 0 40 40" fill="none" xmlns="http://www.w3.org/2000/svg">
<path d="M0 9.27902C0 6.47125 0 3.66377 0 0.856579C0 0 0 0 0.873085 0C5.89557 0.00810825 10.9172 0.0162165 15.9379 0.0243248C16.6173 0.0243248 17.2975 -0.00347496 17.9769 0.00868741C18.4868 0.0173748 18.5676 0.11728 18.5685 0.637656C18.5685 2.43305 18.5685 4.22845 18.5685 6.02385C18.5685 9.98879 18.5685 13.954 18.5685 17.9195C18.5685 18.5033 18.4668 18.6084 17.8987 18.6084H0.792292C0.053862 18.6084 0.000868741 18.5554 0.000868741 17.8309L0 9.27902Z" fill="#2DA833"/>
<path d="M30.7535 18.6085H22.4188C21.55 18.6085 21.4684 18.5355 21.4805 17.6746C21.5587 12.2771 21.5023 6.88047 21.5231 1.48385C21.5231 1.15286 21.4501 0.828816 21.5066 0.490006C21.5561 0.196372 21.6803 0.0886477 21.9618 0.110367C22.839 0.187604 23.7085 0.335186 24.562 0.551687C30.909 2.09805 35.4299 5.89097 38.2542 11.7411C39.1768 13.6523 39.6702 15.6965 39.9413 17.7954C40.0282 18.4964 39.9317 18.6059 39.2185 18.6068H30.7535V18.6085Z" fill="#2DA833"/>
<path d="M9.30861 21.5448C12.1737 21.5448 15.0391 21.5448 17.9048 21.5448C18.5277 21.5448 18.565 21.5812 18.5659 22.2093C18.5659 27.9396 18.5659 33.6698 18.5659 39.4C18.5659 39.9725 18.5086 40.0437 17.9387 39.9812C15.1222 39.671 12.4708 38.8318 10.0244 37.4002C5.34455 34.6575 2.29005 30.6457 0.76194 25.4541C0.430949 24.3299 0.240695 23.1806 0.0930091 22.0208C0.0391471 21.603 0.229401 21.5361 0.582979 21.5369C3.49152 21.5448 6.40007 21.5448 9.30861 21.5448Z" fill="#2DA833"/>
<path d="M21.5217 39.1802C21.5217 33.7552 21.5217 28.3299 21.5217 22.9043C21.5217 22.5733 21.4348 22.2476 21.5104 21.9105C21.5625 21.6716 21.6711 21.5534 21.9135 21.5526C22.1559 21.5517 22.4052 21.5413 22.6511 21.5413L39.1459 21.5369H39.2762C39.9338 21.5465 40.0198 21.6238 39.9425 22.2675C39.5133 25.8198 38.2763 29.055 36.1331 31.9332C32.7519 36.4741 28.2406 39.0933 22.6563 39.9047C22.5564 39.9195 22.4591 39.9516 22.3592 39.9655C21.5903 40.0724 21.4713 39.9621 21.5217 39.1802Z" fill="#2DA833"/>
</svg>
